<?xml version="1.0" standalone="no"?>
<!DOCTYPE svg PUBLIC "-//W3C//DTD SVG 20010904//EN"
 "http://www.w3.org/TR/2001/REC-SVG-20010904/DTD/svg10.dtd">
<svg version="1.0" xmlns="http://www.w3.org/2000/svg"
 width="1080.000000pt" height="1080.000000pt" viewBox="0 0 1080.000000 1080.000000"
 preserveAspectRatio="xMidYMid meet">

<g transform="translate(0.000000,1080.000000) scale(0.100000,-0.100000)"
fill="#000000" stroke="none">
<path d="M5393 8773 c-70 -2 -103 -7 -103 -15 0 -9 -3 -9 -12 0 -16 16 -105
16 -111 0 -3 -10 -8 -9 -22 2 -14 11 -19 12 -22 3 -3 -8 -22 -13 -48 -13 -24
0 -55 -4 -69 -10 -16 -6 -27 -6 -31 0 -4 6 -24 10 -46 10 -22 0 -38 -4 -35 -9
3 -5 -1 -11 -9 -15 -18 -6 -14 -48 5 -54 9 -3 11 3 8 21 -4 22 -3 24 13 14 9
-6 15 -16 12 -23 -6 -16 46 -16 72 1 31 19 732 20 795 0 25 -7 66 -13 92 -13
42 0 46 2 45 22 -3 37 -28 53 -77 50 -61 -5 -151 6 -144 17 3 5 -2 9 -10 9 -8
0 -18 -4 -21 -10 -3 -5 -15 -10 -26 -10 -11 0 -17 5 -14 10 4 6 -6 10 -23 10
-16 0 -49 2 -73 3 -24 2 -90 2 -146 0z"/>
<path d="M4766 8698 c-9 -5 -14 -14 -10 -20 4 -5 -4 -5 -17 2 -13 7 -21 9 -17
5 4 -5 2 -15 -5 -23 -8 -11 -8 -14 0 -9 6 4 14 1 16 -5 4 -10 8 -9 16 2 6 8
11 11 11 7 0 -5 7 -1 16 7 8 9 19 14 23 12 4 -3 7 3 7 13 0 19 -16 23 -40 9z"/>
<path d="M5950 8695 c-10 -12 -10 -15 3 -15 8 0 17 7 21 15 3 8 2 15 -3 15 -5
0 -14 -7 -21 -15z"/>
<path d="M4825 8690 c3 -5 10 -10 16 -10 5 0 9 5 9 10 0 6 -7 10 -16 10 -8 0
-12 -4 -9 -10z"/>
<path d="M5990 8683 c-13 -15 -12 -16 3 -10 9 3 23 0 32 -9 18 -19 19 -6 1 19
-16 21 -17 21 -36 0z"/>
<path d="M5270 8484 c-299 -26 -394 -39 -585 -85 -365 -86 -776 -276 -1019
-471 -73 -59 -78 -67 -70 -108 6 -28 10 -31 33 -25 14 4 90 45 169 92 463 276
899 417 1402 453 210 16 518 0 695 -35 39 -8 102 -19 140 -26 276 -46 710
-228 1043 -438 81 -51 137 -80 142 -75 5 5 12 23 16 40 7 36 -10 56 -108 129
-386 288 -906 483 -1423 534 -118 12 -371 21 -435 15z"/>
<path d="M4905 7820 c-3 -5 -1 -10 4 -10 6 0 11 5 11 10 0 6 -2 10 -4 10 -3 0
-8 -4 -11 -10z"/>
<path d="M4930 7816 c0 -17 -31 -30 -39 -17 -3 5 -18 7 -33 4 -15 -3 -26 -9
-23 -13 3 -5 -24 -7 -60 -7 -46 2 -68 -2 -74 -12 -5 -7 -15 -11 -22 -9 -8 3
-19 -5 -24 -16 -6 -12 -21 -22 -35 -22 -14 -1 -33 -5 -43 -9 -14 -6 -20 -2
-24 14 -8 33 -25 25 -22 -11 3 -60 -13 -139 -30 -145 -9 -2 -24 -9 -33 -14
-28 -15 -42 -11 -78 21 -33 29 -34 29 -47 10 -17 -24 -8 -46 12 -30 10 9 16 7
24 -9 15 -26 4 -50 -25 -57 -13 -3 -24 -12 -24 -19 0 -7 -11 -12 -24 -12 -18
0 -26 6 -31 25 l-6 25 -19 -31 c-12 -19 -40 -41 -77 -58 -32 -15 -60 -28 -63
-28 -7 0 -33 -36 -49 -68 -8 -16 -18 -28 -23 -28 -5 0 -7 -4 -3 -9 3 -5 -5
-20 -18 -33 -35 -35 -51 -137 -47 -293 1 -16 1 -49 0 -72 -1 -46 17 -89 59
-140 40 -49 71 -102 71 -124 0 -17 76 -141 135 -219 60 -80 80 -117 111 -207
20 -54 50 -141 69 -193 61 -174 66 -185 84 -200 10 -8 44 -58 76 -110 57 -95
192 -247 245 -275 14 -7 48 -32 75 -54 27 -23 60 -41 73 -41 21 0 23 -3 16
-32 -3 -18 -15 -44 -26 -58 -17 -21 -19 -34 -14 -80 5 -42 2 -70 -14 -115 -12
-35 -17 -62 -11 -68 5 -5 12 3 16 22 12 56 25 44 25 -23 0 -66 0 -66 40 -91
50 -32 52 -31 33 5 -14 29 -13 34 17 97 17 37 40 76 51 86 19 18 22 18 54 3
43 -21 53 -20 124 5 33 11 68 19 78 17 12 -2 34 21 73 79 31 45 77 106 102
135 24 29 62 77 83 107 l39 53 -90 -56 c-98 -63 -271 -153 -278 -146 -2 3 -6
14 -8 25 -2 16 2 19 22 16 25 -3 25 -3 6 18 -11 12 -16 24 -13 28 4 3 7 1 7
-5 0 -7 5 -12 10 -12 6 0 10 7 10 16 0 9 30 51 68 94 97 112 102 119 92 125
-5 3 -18 1 -29 -5 -28 -14 -44 -12 -37 5 3 10 -1 15 -13 15 -13 0 -17 6 -14
23 2 12 -1 28 -5 36 -8 11 -13 10 -31 -5 -11 -10 -21 -26 -21 -36 0 -10 -7
-18 -15 -18 -9 0 -15 -10 -15 -26 0 -14 -4 -23 -10 -19 -6 3 -13 -1 -16 -9 -5
-12 -9 -13 -24 -3 -16 9 -23 7 -43 -11 -32 -30 -55 -28 -63 6 -4 15 -14 32
-22 38 -13 10 -13 14 6 35 12 13 21 28 19 34 -2 5 -32 10 -69 10 -36 0 -71 5
-79 11 -8 6 -27 16 -44 21 l-30 10 60 22 c80 30 94 42 63 54 l-23 8 25 19 c34
25 58 31 64 14 4 -11 10 -12 31 -2 21 10 28 9 35 -2 7 -12 12 -11 28 3 26 24
72 23 72 -2 0 -11 4 -22 9 -26 6 -3 6 -18 0 -38 -8 -27 -6 -34 11 -46 11 -7
20 -19 20 -26 0 -6 7 -12 15 -12 17 0 18 7 6 39 -28 71 -34 107 -21 123 10 12
9 27 -3 77 -9 35 -18 74 -21 88 -7 32 -101 139 -135 151 -29 12 -71 -5 -71
-28 0 -30 32 -73 76 -103 49 -34 54 -58 16 -75 -12 -5 -22 -19 -22 -30 0 -12
-3 -16 -8 -8 -10 16 -31 18 -75 9 -24 -4 -43 -3 -52 4 -8 7 -21 7 -38 1 -21
-8 -35 -5 -69 14 -50 29 -89 31 -123 9 l-25 -16 2 60 c2 33 -1 64 -5 68 -5 5
-25 -12 -45 -36 -20 -25 -63 -70 -94 -101 -32 -31 -58 -61 -58 -67 0 -23 -26
-18 -54 11 -40 41 -94 163 -122 276 -31 125 -30 150 4 81 19 -38 34 -56 52
-61 14 -3 39 -20 57 -36 51 -48 164 -62 188 -24 3 6 19 11 34 11 37 0 58 26
67 78 4 23 11 45 15 48 5 3 9 20 9 37 0 37 5 45 43 74 l29 22 29 -21 c16 -12
29 -27 29 -33 0 -20 33 -42 99 -64 61 -21 101 -21 101 1 0 5 10 21 23 34 23
24 31 74 13 86 -15 10 22 47 58 56 26 7 31 13 31 39 0 17 3 35 8 39 4 4 7 22
7 40 0 28 -5 34 -33 43 -48 16 -149 -1 -222 -37 -33 -17 -80 -35 -105 -42 -60
-16 -189 -59 -220 -75 -14 -7 -56 -13 -95 -14 -86 -1 -101 -6 -143 -42 -18
-16 -39 -29 -46 -29 -8 0 -26 -13 -39 -30 -28 -33 -28 -33 -42 38 -5 24 -1 42
14 68 12 19 21 50 21 68 0 19 10 46 25 66 14 19 25 47 25 62 0 70 60 120 142
117 43 -2 114 15 132 32 6 5 17 9 25 9 9 0 39 11 66 25 28 13 57 25 67 25 9 0
36 -18 59 -40 49 -45 78 -50 124 -20 32 21 71 26 77 10 2 -6 19 -12 38 -14 40
-4 58 -10 117 -36 51 -23 108 -101 105 -142 -1 -16 4 -38 12 -51 8 -12 25 -53
37 -90 16 -49 29 -71 44 -77 16 -6 26 -24 37 -72 18 -70 38 -206 38 -254 0
-38 -35 -120 -54 -127 -7 -3 -16 -25 -20 -49 -6 -35 -9 -40 -17 -25 -6 9 -7
26 -4 37 4 11 2 20 -3 20 -18 0 -23 -66 -7 -103 20 -49 19 -62 -7 -87 -19 -18
-20 -22 -8 -30 22 -14 27 -12 35 13 l8 22 4 -21 c5 -27 38 -37 57 -18 8 8 19
14 25 14 15 0 14 17 -1 23 -10 4 -10 6 0 6 6 1 12 8 12 16 0 8 4 15 8 15 5 0
9 13 9 30 0 16 7 38 16 48 10 10 17 33 17 50 0 17 4 33 9 37 10 6 7 77 -4 95
-13 22 -30 200 -18 200 31 -1 57 -89 83 -285 25 -185 35 -138 30 151 -1 90 2
149 9 163 6 11 14 38 16 58 11 89 28 129 67 157 37 26 52 66 26 66 -7 0 -26 7
-42 15 -15 8 -31 13 -36 10 -11 -7 -55 104 -87 215 -14 52 -29 97 -32 100 -13
11 -17 96 -8 165 4 34 2 52 -6 57 -7 5 0 8 18 8 l30 1 -24 19 c-19 17 -20 20
-6 20 14 0 15 3 5 15 -7 8 -19 15 -27 15 -10 0 -11 5 -5 16 10 17 -2 78 -24
131 -7 18 -11 39 -8 47 4 10 -3 17 -21 22 -16 4 -24 12 -21 19 3 8 -1 16 -8
18 -7 3 -16 24 -20 46 -6 39 -58 113 -70 100 -3 -3 7 -19 24 -35 22 -22 30
-38 30 -66 0 -21 -4 -38 -9 -38 -5 0 -16 -3 -25 -6 -11 -4 -16 -1 -16 10 0 9
-4 16 -10 16 -5 0 -10 8 -10 18 0 9 -9 28 -20 42 -11 14 -20 40 -20 59 0 46
-41 128 -83 169 -41 40 -98 53 -122 28 -9 -9 -28 -16 -42 -16 -22 0 -24 3 -19
25 5 21 2 27 -19 35 -15 6 -37 7 -50 4 -15 -4 -26 0 -32 9 -19 32 -93 51 -93
23z m-550 -352 c0 -9 -5 -12 -12 -8 -8 5 -9 2 -5 -9 4 -11 1 -17 -8 -17 -19 0
-19 9 2 32 20 22 23 22 23 2z m-127 -84 c11 -9 -12 -57 -31 -65 -28 -10 -40
12 -28 50 9 28 15 34 31 29 11 -4 24 -10 28 -14z m-103 6 c0 -3 -4 -8 -10 -11
-5 -3 -10 -1 -10 4 0 6 5 11 10 11 6 0 10 -2 10 -4z m0 -79 c0 -46 -11 -45
-12 2 -1 18 -6 31 -14 31 -7 0 -15 4 -18 9 -3 4 6 6 19 3 22 -4 25 -10 25 -45z
m1390 3 c0 -5 -5 -10 -11 -10 -5 0 -7 5 -4 10 3 6 8 10 11 10 2 0 4 -4 4 -10z
m77 -316 c-3 -3 -12 -4 -19 -1 -8 3 -5 6 6 6 11 1 17 -2 13 -5z m11 -405 c-37
-11 -60 -10 -53 2 4 6 14 8 22 5 11 -4 13 -2 9 9 -19 47 -18 49 13 20 32 -30
32 -30 9 -36z m2 -172 c0 -20 -25 1 -28 24 -2 23 -2 23 13 5 8 -11 15 -24 15
-29z m-50 12 c0 -6 -4 -7 -10 -4 -5 3 -10 11 -10 16 0 6 5 7 10 4 6 -3 10 -11
10 -16z m-392 -20 c-2 -6 -8 -10 -13 -10 -5 0 -11 4 -13 10 -2 6 4 11 13 11 9
0 15 -5 13 -11z m461 -73 c-9 -8 -10 -7 -5 7 3 10 7 24 7 30 1 7 3 4 6 -7 3
-10 -1 -23 -8 -30z m60 -60 l23 -24 -30 -16 c-40 -21 -47 -20 -82 6 -43 31
-40 54 3 32 26 -14 30 -14 20 -2 -30 35 33 39 66 4z m-1169 -96 c0 -5 -2 -10
-4 -10 -3 0 -8 5 -11 10 -3 6 -1 10 4 10 6 0 11 -4 11 -10z m1033 -250 c-3
-11 -9 -20 -14 -20 -5 0 -9 9 -9 20 0 11 6 20 14 20 9 0 12 -7 9 -20z m-733
-86 c0 -13 -67 -37 -81 -29 -4 3 -2 20 3 39 l11 34 33 -16 c19 -8 34 -21 34
-28z m320 8 c0 -13 -12 -22 -22 -16 -10 6 -1 24 13 24 5 0 9 -4 9 -8z m398
-32 c15 0 15 -2 2 -10 -23 -15 -50 -12 -50 6 0 11 5 14 16 10 9 -3 23 -6 32
-6z"/>
<path d="M4574 6596 c-18 -14 -18 -15 -1 -22 22 -8 46 11 31 26 -7 7 -17 5
-30 -4z"/>
<path d="M3356 6545 c-9 -25 6 -194 19 -205 10 -8 397 -40 487 -40 l28 0 0 99
c0 67 -4 102 -12 109 -7 5 -58 13 -113 17 -55 4 -161 13 -235 21 -168 17 -167
17 -174 -1z"/>
<path d="M6997 6283 c-11 -10 -8 -181 3 -188 7 -4 7 -12 0 -24 -9 -19 -7 -186
6 -419 l7 -123 26 7 c14 5 56 9 92 10 83 1 93 7 85 49 -8 42 16 68 34 35 9
-16 9 -25 0 -35 -22 -26 -7 -58 40 -86 25 -15 50 -28 57 -28 7 -1 14 27 18 77
3 42 10 87 16 100 l9 23 30 -28 c25 -22 29 -33 24 -53 -11 -39 -4 -193 9 -207
7 -6 25 -13 42 -15 l30 -3 1 180 c1 99 7 292 13 428 7 145 8 254 3 264 -7 12
-31 16 -98 19 -49 3 -156 9 -237 14 -176 12 -202 12 -210 3z m76 -200 c-7 -2
-19 -2 -25 0 -7 3 -2 5 12 5 14 0 19 -2 13 -5z m75 0 c-10 -2 -26 -2 -35 0
-10 3 -2 5 17 5 19 0 27 -2 18 -5z m70 -10 c-10 -2 -26 -2 -35 0 -10 3 -2 5
17 5 19 0 27 -2 18 -5z m182 -355 c0 -24 -17 -23 -25 2 -8 26 4 48 16 29 5 -8
9 -22 9 -31z m-257 -94 c-3 -8 -12 -14 -19 -14 -20 0 -30 30 -13 40 17 11 40
-7 32 -26z"/>
<path d="M3426 6262 c-37 -3 -38 -4 -31 -35 3 -18 8 -77 11 -132 5 -120 12
-213 18 -240 3 -11 5 -39 5 -62 1 -24 4 -43 9 -43 4 0 6 35 4 77 -2 71 -1 76
13 59 8 -11 16 -36 16 -55 3 -73 8 -118 19 -191 6 -41 12 -129 13 -195 l2
-120 53 -3 52 -3 0 144 c0 79 3 147 7 151 4 4 15 -3 24 -16 24 -31 32 -18 35
48 1 31 5 59 9 62 11 11 35 -30 35 -59 0 -15 5 -40 11 -56 7 -15 15 -44 20
-63 5 -20 7 124 4 328 -2 250 -7 367 -15 377 -7 8 -45 15 -108 19 -53 4 -113
8 -132 9 -19 2 -52 2 -74 -1z m24 -280 c0 -21 -2 -24 -10 -12 -13 20 -13 53 0
45 6 -3 10 -18 10 -33z m183 -302 c6 -23 -7 -45 -22 -36 -17 11 -14 67 3 60 8
-3 16 -14 19 -24z"/>
<path d="M3793 6239 c-7 -7 -9 -42 -7 -92 9 -171 26 -402 31 -410 2 -4 22 5
43 20 45 32 44 30 38 253 -1 58 -2 130 -3 162 0 31 -2 58 -5 61 -13 11 -87 16
-97 6z"/>
<path d="M5020 5973 l-35 -16 35 -7 c40 -7 70 4 70 25 0 19 -26 18 -70 -2z"/>
<path d="M5734 5729 c19 -67 18 -86 -12 -152 -17 -37 -27 -67 -22 -67 22 0 61
51 90 117 33 78 30 113 -10 113 -10 0 -26 3 -36 7 -14 5 -16 2 -10 -18z"/>
<path d="M5880 5741 c0 -5 7 -14 15 -21 23 -19 18 -51 -19 -132 -117 -253
-118 -255 -88 -243 9 4 23 9 30 12 7 3 12 -2 12 -12 0 -9 4 -14 9 -11 9 6 21
-28 27 -81 4 -25 1 -33 -11 -33 -12 0 -15 -8 -13 -30 6 -46 20 -38 40 22 10
29 27 73 39 97 19 41 19 44 2 57 -10 7 -25 14 -33 14 -8 0 -26 8 -40 16 -18
11 -19 13 -5 9 89 -28 104 -30 119 -10 15 20 15 20 10 0 -4 -16 3 -25 28 -37
31 -16 32 -17 8 -17 -23 -1 -25 -5 -27 -50 -1 -41 -7 -54 -41 -92 -23 -24 -41
-48 -42 -54 -1 -5 -7 -17 -15 -25 -7 -8 -22 -35 -33 -60 l-21 -45 6 40 c3 22
10 48 14 57 6 10 5 19 -1 23 -6 3 -13 -2 -16 -12 -3 -10 -10 -30 -16 -45 -6
-15 -8 -36 -4 -45 3 -10 -26 16 -64 57 -39 41 -70 78 -70 83 0 19 -19 4 -34
-27 -20 -42 -20 -56 -2 -56 8 0 16 -5 18 -12 3 -7 21 -12 41 -11 20 1 37 -2
37 -6 0 -14 -23 -29 -36 -24 -12 4 -12 0 -4 -21 7 -20 7 -28 -3 -32 -9 -3 -12
-16 -9 -34 2 -17 -1 -37 -8 -45 -7 -8 -10 -22 -6 -30 3 -9 0 -15 -10 -15 -8 0
-12 -5 -9 -10 4 -6 1 -17 -5 -25 -7 -8 -9 -15 -5 -15 5 0 0 -9 -9 -19 -10 -11
-23 -39 -31 -63 -15 -49 -56 -140 -68 -149 -4 -3 -5 -13 -2 -21 4 -9 0 -18 -9
-21 -9 -4 -16 -16 -16 -27 0 -11 -9 -38 -20 -60 -35 -69 -23 -114 49 -185 52
-50 56 -90 11 -100 -16 -4 -33 -11 -36 -17 -4 -7 -2 -8 4 -4 7 4 12 3 12 -3 0
-5 -9 -13 -20 -16 -11 -3 -20 -13 -20 -21 0 -11 14 -4 42 20 39 34 58 44 58
30 0 -3 -7 -12 -15 -21 -21 -20 -12 -28 14 -14 18 10 30 4 94 -48 92 -74 137
-125 137 -154 1 -12 7 -35 14 -52 10 -24 10 -34 -1 -55 -7 -14 -13 -35 -13
-47 0 -46 -18 -30 -25 23 l-7 55 -26 -17 -27 -18 28 37 c19 25 24 38 15 43 -6
4 -14 2 -16 -4 -2 -7 -11 -12 -19 -12 -11 0 -14 6 -10 21 4 15 2 19 -9 15 -16
-6 -64 13 -64 25 0 15 -35 15 -52 1 -16 -13 -18 -13 -18 1 0 10 5 17 10 17 19
0 10 32 -10 37 -11 3 -20 9 -20 13 0 4 -16 20 -35 34 -30 23 -38 25 -57 15
-19 -9 -21 -9 -10 2 17 18 15 27 -7 38 -15 8 -32 0 -91 -44 -41 -30 -79 -55
-85 -55 -15 0 -45 33 -45 48 0 7 -4 12 -10 12 -5 0 -10 9 -10 20 0 11 -4 20
-9 20 -9 0 -48 58 -63 93 -4 9 -13 17 -20 17 -7 0 -25 6 -40 14 -14 8 -30 10
-35 6 -4 -5 -23 -12 -42 -17 -50 -13 -58 -32 -39 -93 17 -52 17 -52 -7 -74
-22 -20 -23 -26 -13 -69 8 -39 7 -50 -6 -63 -29 -28 -15 -61 57 -135 84 -86
83 -85 30 -164 -50 -74 -82 -140 -83 -167 0 -10 16 -35 35 -56 l34 -39 -24
-94 c-13 -52 -37 -163 -54 -248 -16 -85 -34 -158 -40 -164 -31 -31 -65 80 -76
250 -3 52 -14 117 -26 150 -12 32 -22 89 -23 128 -3 60 1 78 27 129 25 51 28
67 23 110 -4 28 -9 87 -13 131 -3 44 -12 89 -18 100 -7 11 -16 36 -20 55 -3
19 -13 66 -22 103 -15 62 -15 78 1 191 19 144 20 178 6 156 -7 -11 -11 -9 -19
13 -13 34 2 119 34 199 26 65 41 131 50 230 6 67 6 67 -24 82 -16 9 -36 16
-44 16 -8 0 -20 7 -27 15 -10 12 -15 10 -36 -13 -14 -17 -23 -22 -24 -13 0 8
6 22 14 30 13 14 11 20 -10 44 -22 26 -24 27 -39 10 -8 -10 -38 -44 -65 -76
-28 -31 -50 -61 -50 -65 -1 -4 -19 -27 -40 -52 -30 -34 -39 -40 -36 -23 6 28
35 73 48 73 6 0 8 7 5 15 -4 8 -2 17 3 20 12 7 13 25 2 25 -22 0 -114 -97
-138 -145 -14 -30 -30 -55 -34 -55 -4 0 -13 -13 -20 -30 -14 -33 -49 -69 -37
-37 10 27 -1 20 -17 -10 -31 -62 -61 -295 -40 -316 3 -3 28 11 56 31 144 106
181 126 213 118 18 -5 25 -1 30 14 10 30 48 52 79 44 30 -7 31 -11 10 -35 -8
-9 -17 -37 -19 -63 -6 -55 -22 -85 -52 -92 -11 -3 -32 -17 -45 -31 l-23 -26
43 27 c43 27 82 31 89 10 2 -7 -12 -15 -33 -18 -20 -4 -34 -10 -30 -13 7 -7
-22 -63 -34 -63 -5 0 -12 5 -15 10 -3 6 -15 10 -26 10 -18 0 -44 -22 -110 -96
-14 -16 -56 -47 -93 -68 -36 -21 -76 -51 -87 -65 l-20 -26 5 33 6 34 -27 -20
c-30 -22 -29 -18 -38 -180 -3 -56 -11 -102 -19 -114 -17 -25 -31 -7 -22 29 12
45 -18 20 -32 -28 -8 -24 -18 -57 -24 -74 -5 -16 -15 -55 -23 -85 -7 -30 -21
-89 -31 -130 -14 -55 -18 -105 -17 -188 3 -132 18 -193 74 -294 48 -88 90
-188 78 -188 -20 0 -271 144 -385 221 -42 28 -82 48 -90 45 -8 -3 -14 -19 -14
-36 0 -37 28 -65 140 -144 383 -271 878 -450 1370 -495 390 -36 711 -11 1075
85 190 50 324 99 530 194 163 76 428 245 517 332 24 23 27 33 24 71 -4 43 -3
46 52 93 97 84 254 238 276 271 12 17 43 57 70 88 l49 56 -32 30 c-18 16 -36
29 -42 29 -5 0 -9 4 -9 9 0 5 -9 11 -20 14 -13 3 -20 13 -20 29 0 22 2 21 26
-9 14 -18 33 -33 42 -33 9 0 28 -11 42 -25 l27 -25 61 82 c34 46 62 91 62 101
0 9 6 17 13 17 15 0 51 55 60 90 5 20 1 29 -16 39 -21 13 -21 13 -7 -4 13 -16
13 -18 0 -13 -8 2 -17 18 -20 34 -4 21 -15 34 -43 47 -20 9 -37 24 -37 32 0 8
2 15 5 15 7 0 104 -67 128 -89 18 -15 21 -14 43 13 28 31 27 49 -2 55 -10 1
-26 9 -34 16 -13 12 -115 50 -222 85 -26 8 -28 7 -28 -22 0 -17 6 -39 14 -47
15 -18 32 -161 19 -161 -5 0 -22 20 -37 45 -19 29 -36 45 -49 45 -11 0 -34 9
-52 20 -29 18 -34 29 -45 85 -7 36 -10 71 -7 78 5 13 4 18 -42 272 -17 94 -35
181 -40 195 -6 14 -24 75 -41 135 -34 122 -67 179 -151 264 -62 62 -106 86
-128 68 -12 -9 -13 -9 -7 1 5 9 -9 20 -46 38 -70 33 -129 66 -145 81 -27 25
-53 25 -73 1 l-20 -23 10 28 c9 25 7 29 -17 38 -15 6 -41 17 -58 24 -32 15
-137 45 -170 49 -11 2 -19 6 -17 11 5 13 -97 65 -129 65 -11 0 -19 4 -19 9 0
4 -19 15 -42 23 -24 8 -59 20 -78 27 -19 7 -64 21 -98 32 -83 26 -118 61 -182
179 -29 52 -59 103 -68 113 -15 17 -72 24 -72 8z m162 -653 c-2 -27 -8 -46
-13 -43 -4 3 -6 20 -3 38 13 74 23 77 16 5z m1094 -75 c-3 -3 -22 -7 -43 -9
-27 -3 -32 -1 -18 5 21 9 69 12 61 4z m28 -103 c6 -36 5 -43 -5 -32 -7 6 -28
12 -46 12 -18 0 -33 5 -33 11 0 8 12 10 36 6 l36 -6 -7 42 c-4 27 -3 37 3 27
5 -8 12 -35 16 -60z m-2494 26 c0 -2 -8 -10 -17 -17 -16 -13 -17 -12 -4 4 13
16 21 21 21 13z m75 -88 c-44 -152 -85 -250 -51 -121 9 32 20 77 26 101 6 23
15 42 21 42 6 0 8 -10 4 -22z m1230 -108 c-9 -18 -19 -30 -21 -27 -3 3 2 19
11 37 9 18 19 30 21 27 3 -3 -2 -19 -11 -37z m-1565 -106 c-18 -21 -24 -10 -8
15 7 12 14 17 16 11 2 -6 -2 -17 -8 -26z m337 -376 c-3 -7 -5 -2 -5 12 0 14 2
19 5 13 2 -7 2 -19 0 -25z m-277 -248 c-6 -11 -18 -20 -27 -20 -14 0 -14 2 2
20 10 11 22 20 27 20 5 0 4 -9 -2 -20z m677 -16 c-3 -3 -12 -4 -19 -1 -8 3 -5
6 6 6 11 1 17 -2 13 -5z m953 -24 c0 -5 12 -10 28 -11 26 0 26 -1 5 -9 -13 -5
-23 -14 -23 -20 0 -17 -14 -11 -28 10 -13 21 -9 40 9 40 5 0 9 -4 9 -10z
m-1466 -55 c-21 -32 -101 -85 -128 -85 -19 1 -18 3 9 26 38 32 116 84 127 84
5 0 1 -11 -8 -25z m-284 0 c-7 -8 -18 -15 -24 -15 -6 0 -2 7 8 15 25 19 32 19
16 0z m1840 -74 c-19 -9 -34 -23 -32 -30 1 -7 -2 -9 -9 -6 -6 4 -24 -3 -41
-15 -16 -12 -32 -20 -35 -17 -2 3 9 16 26 28 18 13 29 29 27 35 -5 13 18 21
69 22 l30 1 -35 -18z m1410 -64 c0 -4 -11 0 -25 9 -14 9 -25 26 -25 38 1 19 3
18 25 -9 14 -16 25 -33 25 -38z m-2538 4 c18 -17 38 -27 46 -23 10 3 13 1 8
-6 -11 -19 -38 -14 -80 14 -29 20 -35 28 -25 35 19 12 16 13 51 -20z m-552
-35 c0 -8 -9 -24 -20 -37 l-19 -24 -1 31 c0 17 3 34 7 37 11 12 33 7 33 -7z
m1470 -26 c0 -5 -7 -7 -15 -4 -8 4 -15 8 -15 10 0 2 7 4 15 4 8 0 15 -4 15
-10z m-10 -30 c0 -5 -5 -10 -11 -10 -5 0 -7 5 -4 10 3 6 8 10 11 10 2 0 4 -4
4 -10z m-30 -50 c0 -5 -9 -10 -21 -10 -11 0 -17 5 -14 10 3 6 13 10 21 10 8 0
14 -4 14 -10z m72 -32 c-6 -6 -7 0 -4 19 5 21 7 23 10 9 2 -10 0 -22 -6 -28z
m153 14 c-3 -3 -11 0 -18 7 -9 10 -8 11 6 5 10 -3 15 -9 12 -12z"/>
<path d="M5490 5605 c0 -8 5 -15 10 -15 6 0 10 7 10 15 0 8 -4 15 -10 15 -5 0
-10 -7 -10 -15z"/>
<path d="M7130 5475 c-7 -8 -12 -35 -12 -60 2 -84 23 -87 58 -10 13 31 24 62
24 70 0 20 -54 20 -70 0z"/>
<path d="M7033 5468 c-25 -12 -31 -54 -12 -89 8 -15 7 -24 -2 -35 -21 -25 3
-36 39 -18 18 8 32 17 32 20 0 2 -7 22 -16 44 -13 32 -14 47 -6 66 13 27 3 30
-35 12z"/>
<path d="M7245 5439 c-9 -27 -2 -33 38 -33 25 -1 33 -6 35 -22 4 -30 -23 -51
-43 -34 -12 10 -19 10 -27 2 -15 -15 -2 -42 21 -42 26 0 97 49 93 63 -4 17
-83 87 -98 87 -7 0 -16 -9 -19 -21z"/>
<path d="M5625 5065 c-5 -11 -12 -22 -16 -25 -12 -8 1 -51 13 -44 5 3 7 12 4
19 -3 8 0 15 6 17 5 2 8 15 6 28 -4 24 -5 24 -13 5z"/>
<path d="M5558 4983 c-24 -29 -182 -443 -159 -418 4 6 13 24 19 40 36 102 126
326 143 358 22 40 21 47 -3 20z"/>
<path d="M4550 4910 c-9 -6 -10 -10 -3 -10 6 0 15 5 18 10 8 12 4 12 -15 0z"/>
<path d="M8228 4803 c-27 -7 -22 -27 13 -47 35 -21 37 -20 45 22 6 29 4 32
-17 31 -13 -1 -32 -3 -41 -6z"/>
<path d="M8170 4689 c0 -5 5 -7 10 -4 6 3 10 8 10 11 0 2 -4 4 -10 4 -5 0 -10
-5 -10 -11z"/>
<path d="M8225 4670 c3 -5 14 -10 23 -10 15 0 15 2 2 10 -20 13 -33 13 -25 0z"/>
<path d="M5335 4492 c-5 -4 -21 -20 -34 -35 l-24 -27 24 0 c19 0 30 9 42 35
16 34 13 43 -8 27z"/>
<path d="M5050 4406 c0 -19 5 -38 10 -41 6 -4 10 10 10 34 0 23 -4 41 -10 41
-5 0 -10 -15 -10 -34z"/>
<path d="M5298 4368 c53 -52 78 -59 48 -14 -9 14 -16 32 -16 39 0 13 -40 27
-74 27 -6 0 13 -23 42 -52z"/>
<path d="M7835 4338 c-2 -7 -3 -22 -2 -33 2 -15 -3 -19 -20 -17 -17 2 -23 -2
-23 -16 0 -11 -6 -25 -14 -31 -8 -7 -12 -20 -9 -30 3 -10 0 -22 -6 -25 -5 -4
-8 -13 -4 -21 8 -23 133 -19 140 4 3 9 9 25 14 36 24 55 28 76 19 101 -8 20
-15 25 -31 21 -12 -3 -22 0 -26 9 -6 17 -32 18 -38 2z"/>
<path d="M5098 4296 c-14 -32 -4 -56 22 -56 25 0 34 21 26 55 -8 32 -33 32
-48 1z"/>
<path d="M4308 4204 c-26 -8 -49 -18 -53 -23 -3 -5 -13 -7 -23 -4 -10 2 -34
-7 -54 -21 -24 -16 -40 -21 -44 -14 -11 18 -24 -14 -24 -60 0 -78 60 -62 102
27 23 50 23 50 71 51 46 0 118 28 132 50 9 15 -51 11 -107 -6z"/>
<path d="M7595 4201 c-6 -5 -21 -11 -35 -13 -20 -2 -26 -9 -28 -34 -3 -31 -2
-32 35 -32 21 0 46 4 55 9 10 6 19 5 23 -1 8 -14 25 -13 25 2 0 6 7 20 16 30
15 16 15 18 1 24 -18 6 -56 -12 -74 -35 -18 -25 -27 -5 -9 21 23 33 17 54 -9
29z"/>
<path d="M7893 4063 c9 -2 23 -2 30 0 6 3 -1 5 -18 5 -16 0 -22 -2 -12 -5z"/>
<path d="M3357 3563 c-12 -11 -8 -19 23 -42 39 -28 54 -19 32 19 -16 28 -40
38 -55 23z"/>
<path d="M3245 3530 c4 -6 11 -8 16 -5 14 9 11 15 -7 15 -8 0 -12 -5 -9 -10z"/>
<path d="M3305 3520 c3 -5 12 -10 20 -10 8 0 17 5 20 10 4 6 -5 10 -20 10 -15
0 -24 -4 -20 -10z"/>
<path d="M4721 2151 c-9 -6 -10 -11 -2 -15 6 -4 9 -11 7 -15 -6 -10 25 -8 42
3 17 10 5 26 -15 19 -11 -4 -14 -3 -9 5 8 14 -3 15 -23 3z"/>
<path d="M4800 2136 c0 -9 -4 -16 -9 -16 -5 0 -11 -6 -14 -13 -4 -10 5 -13 31
-12 20 0 38 7 40 14 3 10 -1 12 -12 8 -10 -4 -16 -1 -16 8 0 7 -4 17 -10 20
-5 3 -10 -1 -10 -9z"/>
<path d="M6016 2128 c-9 -12 -13 -24 -10 -27 3 -3 9 1 13 8 6 8 14 10 22 5 11
-6 12 -5 2 8 -7 8 -10 18 -6 21 3 4 4 7 0 7 -3 0 -13 -10 -21 -22z"/>
<path d="M4859 2131 c7 -5 14 -19 15 -32 0 -12 6 -24 13 -26 16 -6 9 47 -8 58
-8 5 -18 9 -24 9 -5 0 -4 -4 4 -9z"/>
<path d="M5985 2130 c3 -5 8 -10 11 -10 2 0 4 5 4 10 0 6 -5 10 -11 10 -5 0
-7 -4 -4 -10z"/>
<path d="M4956 2120 c-16 -5 -17 -8 -6 -15 11 -7 10 -10 -6 -16 -34 -12 39
-35 124 -38 19 -1 31 -5 27 -11 -3 -5 1 -10 9 -10 8 0 18 5 21 10 8 12 45 13
45 1 0 -13 109 -18 115 -6 3 6 7 5 11 -2 3 -7 10 -13 15 -13 6 0 8 4 5 9 -3 5
1 11 8 14 8 3 17 1 19 -6 5 -16 279 -15 285 2 5 14 39 15 47 1 3 -5 13 -10 21
-10 8 0 12 5 9 10 -6 10 21 14 81 10 18 -1 35 3 39 9 3 6 13 11 21 11 8 0 13
-4 10 -9 -3 -5 12 -4 33 1 35 9 40 13 39 39 -1 16 -4 29 -8 29 -11 0 -21 -30
-15 -40 3 -5 1 -11 -5 -15 -5 -3 -10 0 -10 7 0 9 -3 9 -10 -2 -6 -10 -10 -11
-10 -2 0 6 -7 12 -15 12 -7 0 -18 7 -23 16 -8 14 -15 15 -43 6 -51 -16 -768
-13 -794 3 -11 7 -29 9 -39 5z"/>
<path d="M5956 2112 c-3 -6 -1 -14 5 -17 14 -9 20 -2 10 14 -6 8 -11 9 -15 3z"/>
<path d="M4906 2073 c-9 -22 -8 -23 19 -21 14 1 25 3 25 3 0 0 -9 8 -19 17
-17 14 -20 15 -25 1z"/>
</g>
</svg>
